<?xml version="1.0" standalone="no"?>
<!DOCTYPE svg PUBLIC "-//W3C//DTD SVG 20010904//EN"
 "http://www.w3.org/TR/2001/REC-SVG-20010904/DTD/svg10.dtd">
<svg version="1.0" xmlns="http://www.w3.org/2000/svg"
 width="1280.000000pt" height="1280.000000pt" viewBox="0 0 1280.000000 1280.000000"
 preserveAspectRatio="xMidYMid meet">
<g transform="translate(0.000000,1280.000000) scale(0.100000,-0.100000)"
fill="#000000" stroke="none">
<path d="M6205 10113 c-268 -37 -545 -243 -676 -505 -64 -128 -90 -232 -96
-388 -8 -220 39 -398 149 -567 70 -108 169 -198 353 -321 125 -83 164 -115
178 -143 36 -74 46 -419 15 -562 -5 -26 -21 -60 -34 -76 -40 -47 -87 -54 -330
-47 l-216 6 -82 71 c-117 103 -142 114 -251 114 -107 0 -146 -17 -216 -92 -63
-67 -83 -129 -77 -242 5 -101 33 -173 95 -236 53 -55 104 -75 193 -75 97 0
145 22 232 106 80 78 126 99 240 114 189 23 405 -30 437 -107 14 -36 32 -2582
18 -2658 -14 -80 -64 -174 -126 -236 -186 -185 -508 -230 -846 -118 -248 82
-605 306 -785 494 l-45 47 77 71 c143 133 156 168 81 220 -407 282 -633 467
-730 600 -33 45 -38 48 -49 32 -15 -20 -58 -199 -73 -300 -28 -195 -22 -473
14 -681 9 -49 32 -136 51 -194 71 -213 101 -232 207 -131 59 55 95 81 115 81
4 0 46 -52 92 -117 219 -306 473 -549 741 -711 176 -105 279 -149 634 -267
143 -48 294 -101 335 -117 260 -103 438 -244 530 -420 23 -43 44 -78 48 -78 4
0 25 33 47 72 72 127 210 257 365 341 74 40 158 75 536 217 291 110 479 196
617 283 281 178 542 430 761 735 33 45 66 82 74 82 8 0 48 -29 89 -66 63 -54
80 -65 106 -62 26 3 35 11 58 58 92 184 136 461 126 785 -6 176 -20 278 -53
380 -24 73 -65 165 -75 165 -5 0 -21 -24 -35 -52 -80 -160 -197 -273 -459
-446 -229 -151 -305 -208 -305 -228 0 -9 48 -62 106 -119 81 -79 104 -108 100
-123 -13 -39 -286 -258 -450 -359 -497 -308 -997 -325 -1225 -40 -18 23 -49
74 -67 112 -67 139 -66 126 -75 1010 -4 440 -11 942 -15 1115 -9 435 10 625
70 685 32 32 101 40 326 40 212 0 197 5 321 -111 99 -91 188 -114 309 -78 41
12 67 29 110 72 73 73 95 133 95 252 -1 101 -21 155 -85 224 -62 67 -118 90
-215 91 -98 0 -135 -17 -220 -105 -82 -84 -117 -100 -240 -111 -121 -10 -326
3 -378 24 -61 26 -82 95 -98 324 -15 222 8 362 67 415 11 9 71 41 134 71 173
84 279 188 376 371 85 159 116 284 117 466 1 263 -78 471 -247 649 -151 158
-321 249 -535 286 -76 14 -263 18 -336 8z m338 -398 c190 -40 339 -195 377
-392 20 -100 8 -274 -23 -355 -71 -185 -204 -309 -376 -348 -73 -17 -223 -15
-295 5 -132 35 -270 132 -336 235 -84 131 -109 341 -58 486 98 279 399 435
711 369z"/>
</g>
</svg>
